<?xml version="1.0" encoding="UTF-8"?>
<!DOCTYPE svg PUBLIC "-//W3C//DTD SVG 1.1//EN" "http://www.w3.org/Graphics/SVG/1.1/DTD/svg11.dtd">
<!-- Creator: CorelDRAW -->
<svg xmlns="http://www.w3.org/2000/svg" xml:space="preserve" width="1024px" height="1024px" style="shape-rendering:geometricPrecision; text-rendering:geometricPrecision; image-rendering:optimizeQuality; fill-rule:evenodd; clip-rule:evenodd"
viewBox="0 0 75.6069 75.6069"
 xmlns:xlink="http://www.w3.org/1999/xlink">
 <defs>
  <style type="text/css">
   <![CDATA[
    .fil1 {fill:none}
    .fil0 {fill:#02A0E2}
    .fil2 {fill:white}
   ]]>
  </style>
   <clipPath id="id0">
    <path d="M16.7536 0l42.0998 0c9.21459,0 16.7535,7.539 16.7535,16.7536l0 42.0998c0,9.21459 -7.53892,16.7535 -16.7535,16.7535l-42.0998 0c-9.21459,0 -16.7536,-7.53892 -16.7536,-16.7535l0 -42.0998c0,-9.21459 7.539,-16.7536 16.7536,-16.7536z"/>
   </clipPath>
 </defs>
 <g id="Layer_x0020_1">
  <metadata id="CorelCorpID_0Corel-Layer"/>
  <path class="fil0" d="M16.7536 0l42.0998 0c9.21459,0 16.7535,7.539 16.7535,16.7536l0 42.0998c0,9.21459 -7.53892,16.7535 -16.7535,16.7535l-42.0998 0c-9.21459,0 -16.7536,-7.53892 -16.7536,-16.7535l0 -42.0998c0,-9.21459 7.539,-16.7536 16.7536,-16.7536z"/>
  <g style="clip-path:url(#id0)">
   <g id="_142123496">
    <line id="_1421323521" class="fil1" x1="37.8035" y1="0" x2="37.8035" y2= "75.607" />
    <line id="_137048504" class="fil1" x1="52.1696" y1="0" x2="52.1696" y2= "75.607" />
    <line id="_137369848" class="fil1" x1="23.4374" y1="0" x2="23.4374" y2= "75.607" />
    <line id="_137135976" class="fil1" x1="4.8813" y1="0" x2="4.8813" y2= "75.607" />
    <line id="_136917160" class="fil1" x1="70.4692" y1="0" x2="70.4692" y2= "75.607" />
    <line id="_136917616" class="fil1" x1="-0.128194" y1="37.8035" x2="75.4788" y2= "37.8035" />
    <line id="_137203296" class="fil1" x1="-0.128194" y1="23.3092" x2="75.4788" y2= "23.3092" />
    <line id="_137369200" class="fil1" x1="-0.128194" y1="52.0414" x2="75.4788" y2= "52.0414" />
    <line id="_136477568" class="fil1" x1="-0.128194" y1="70.5975" x2="75.4788" y2= "70.5975" />
    <line id="_137310248" class="fil1" x1="-0.128194" y1="5.00958" x2="75.4788" y2= "5.00958" />
    <circle id="_141112424" class="fil1" cx="37.8035" cy="37.8035" r="20.1799"/>
    <circle id="_142138832" class="fil1" cx="37.8035" cy="37.8035" r="32.6657"/>
    <line id="_142145552" class="fil1" x1="8.72065e-005" y1="8.72065e-005" x2="75.5633" y2= "75.5633" />
    <line id="_142128488" class="fil1" x1="75.5633" y1="8.72065e-005" x2="8.72065e-005" y2= "75.5633" />
    <circle id="_142145576" class="fil1" cx="37.8036" cy="37.8035" r="14.1155"/>
   </g>
  </g>
  <path class="fil1" d="M16.7536 0l42.0998 0c9.21459,0 16.7535,7.539 16.7535,16.7536l0 42.0998c0,9.21459 -7.53892,16.7535 -16.7535,16.7535l-42.0998 0c-9.21459,0 -16.7536,-7.53892 -16.7536,-16.7535l0 -42.0998c0,-9.21459 7.539,-16.7536 16.7536,-16.7536z"/>
  <path class="fil2" d="M21.3813 6.49279c0.00906948,-0.930668 -0.749802,-1.7034 -1.68309,-1.7034 -0.927616,0 -1.68012,0.752592 -1.68012,1.68021 0,10.8799 8.90265,19.8031 19.7868,19.8031 10.9244,0 19.7839,-8.85966 19.7839,-19.784l-8.72065e-005 -0.00950551c-0.0119473,-0.931278 -0.739337,-1.6898 -1.68047,-1.6898 -0.913052,0 -1.65963,0.730267 -1.67977,1.64288l-0.000174413 0.0120345c-8.72065e-005,0.0194471 -8.72065e-005,0.0367139 8.72065e-005,0.0517135 -0.0027034,9.06704 -7.35648,16.4163 -16.4235,16.4163 -9.06773,0 -16.4214,-7.35229 -16.4236,-16.4195z"/>
 </g>
</svg>
